<svg width="22" height="20" viewBox="0 0 22 20" fill="none" xmlns="http://www.w3.org/2000/svg">
<path d="M10.9375 0C8.03669 0 5.2547 1.05357 3.20352 2.92893C1.15234 4.8043 0 7.34783 0 10C0 12.6522 1.15234 15.1957 3.20352 17.0711C5.2547 18.9464 8.03669 20 10.9375 20C13.8383 20 16.6203 18.9464 18.6715 17.0711C20.7227 15.1957 21.875 12.6522 21.875 10C21.875 7.34783 20.7227 4.8043 18.6715 2.92893C16.6203 1.05357 13.8383 0 10.9375 0ZM13.821 18.1527H13.7355C13.6718 18.1559 13.6081 18.1471 13.5483 18.1269C13.4884 18.1068 13.4337 18.0756 13.3875 18.0355C13.3448 17.9943 13.3114 17.9457 13.2894 17.8927C13.2674 17.8396 13.2571 17.7831 13.2592 17.7264V16.5536C13.2652 16.1645 13.2692 15.7718 13.2692 15.3745C13.2676 15.0843 13.221 14.7956 13.131 14.5173C13.0461 14.2362 12.875 13.9831 12.6378 13.7882C13.273 13.7321 13.8975 13.6 14.4952 13.3955C14.9994 13.2203 15.4555 12.9463 15.8315 12.5927C16.2024 12.2364 16.4778 11.8073 16.6369 11.3373C16.8318 10.7627 16.9243 10.1645 16.9114 9.56273C16.9143 9.14287 16.8334 8.72605 16.6727 8.33273C16.5104 7.93637 16.2648 7.57287 15.9499 7.26273C16.0175 7.10636 16.0672 6.94364 16.097 6.77727C16.1663 6.39633 16.1541 6.00671 16.0612 5.63C16.0114 5.41357 15.9439 5.20085 15.8594 4.99364C15.827 4.98223 15.7926 4.97667 15.758 4.97727H15.6585C15.4497 4.97909 15.2419 5.01091 15.044 5.07C14.8253 5.12818 14.6105 5.20091 14.4027 5.28727C14.1961 5.37184 13.9949 5.46715 13.8001 5.57273C13.6228 5.66836 13.4487 5.76902 13.2781 5.87455C11.7449 5.4839 10.1241 5.4839 8.59091 5.87455C8.41969 5.76996 8.24563 5.66932 8.06889 5.57273C7.87145 5.46597 7.66688 5.37063 7.45639 5.28727C7.24925 5.19866 7.0344 5.12599 6.81406 5.07C6.61924 5.01108 6.41569 4.97981 6.21051 4.97727H6.11108C6.07703 4.97712 6.04327 4.98299 6.01165 4.99455C5.92531 5.20171 5.85455 5.41402 5.79986 5.63C5.71361 6.00764 5.70451 6.39661 5.77301 6.77727C5.80284 6.94364 5.85156 7.10636 5.91918 7.26273C5.60447 7.5729 5.35923 7.9364 5.1973 8.33273C5.0366 8.72605 4.95573 9.14287 4.95866 9.56273C4.94551 10.1602 5.03475 10.7559 5.22315 11.3282C5.3892 11.7982 5.66364 12.23 6.02954 12.5927C6.40739 12.9436 6.86278 13.2173 7.36591 13.3955C7.96051 13.6045 8.58395 13.7382 9.21832 13.7927C9.04133 13.9391 8.90014 14.12 8.80668 14.32C8.71719 14.5191 8.65454 14.7273 8.62372 14.94C8.28936 15.0866 7.92363 15.1636 7.55284 15.1655C7.20848 15.1777 6.86872 15.0899 6.58239 14.9145C6.3073 14.7285 6.0743 14.4954 5.89631 14.2282C5.81671 14.1162 5.72797 14.0098 5.63082 13.91C5.5282 13.8053 5.41501 13.7098 5.29276 13.6245C5.17163 13.5419 5.03885 13.4746 4.89801 13.4245C4.7598 13.369 4.6105 13.3402 4.45952 13.34C4.4229 13.3411 4.38637 13.3441 4.35014 13.3491C4.30043 13.3491 4.25071 13.3545 4.20298 13.3655C4.1603 13.3756 4.1199 13.3925 4.08366 13.4155C4.06764 13.4238 4.05426 13.4358 4.04485 13.4503C4.03544 13.4648 4.03031 13.4813 4.02997 13.4982C4.03395 13.5383 4.0475 13.5772 4.06966 13.6121C4.09181 13.6469 4.12205 13.677 4.15824 13.7C4.24176 13.7618 4.31236 13.8091 4.36903 13.8427L4.39489 13.86C4.51719 13.9455 4.63352 14.0382 4.7429 14.1373C4.84631 14.2191 4.93878 14.3118 5.01733 14.4127C5.09986 14.5109 5.17045 14.6182 5.22812 14.73C5.29474 14.8418 5.36534 14.97 5.43892 15.1155C5.60994 15.51 5.9142 15.8445 6.30795 16.07C6.7206 16.2727 7.18494 16.3736 7.65327 16.3627C7.81236 16.3627 7.97145 16.3536 8.13054 16.3373C8.28565 16.3145 8.44176 16.29 8.59787 16.2618V17.7145C8.60051 17.773 8.58968 17.8313 8.56608 17.8857C8.54248 17.94 8.50664 17.9893 8.46088 18.0302C8.41513 18.0711 8.36048 18.1027 8.30049 18.123C8.24049 18.1434 8.17649 18.1519 8.11264 18.1482H8.05596C5.93071 17.5204 4.12043 16.2195 2.95109 14.4798C1.78176 12.74 1.33021 10.6757 1.67776 8.65862C2.02531 6.64151 3.14912 4.80412 4.84683 3.47731C6.54453 2.15051 8.70457 1.42146 10.938 1.42146C13.1714 1.42146 15.3315 2.15051 17.0292 3.47731C18.7269 4.80412 19.8507 6.64151 20.1982 8.65862C20.5458 10.6757 20.0942 12.74 18.9249 14.4798C17.7556 16.2195 15.9453 17.5204 13.82 18.1482L13.821 18.1527Z" fill="black"/>
</svg>
