<svg width="20" height="14" viewBox="0 0 20 14" fill="none" xmlns="http://www.w3.org/2000/svg">
<path d="M19.5821 2.70583C19.3521 1.93597 18.6744 1.32965 17.8139 1.12389C16.2542 0.75 10 0.75 10 0.75C10 0.75 3.74586 0.75 2.18613 1.12389C1.32565 1.32969 0.647936 1.93597 0.417919 2.70583C0 4.10124 0 7.01263 0 7.01263C0 7.01263 0 9.92402 0.417919 11.3194C0.647936 12.0893 1.32565 12.6703 2.18613 12.8761C3.74586 13.25 10 13.25 10 13.25C10 13.25 16.2541 13.25 17.8139 12.8761C18.6744 12.6703 19.3521 12.0893 19.5821 11.3194C20 9.92402 20 7.01263 20 7.01263C20 7.01263 20 4.10124 19.5821 2.70583ZM7.95453 9.65596V4.3693L13.1818 7.0127L7.95453 9.65596Z" fill="#FFFBFB"/>
</svg>
