<svg width="16" height="14" viewBox="0 0 16 14" fill="none" xmlns="http://www.w3.org/2000/svg">
<path d="M13.7368 9.51224C13.7368 9.51224 14.9258 11.2581 15.2199 12.066C15.2257 12.0777 15.2301 12.0906 15.2332 12.1043C15.353 12.4027 15.3824 12.6367 15.3236 12.8094C15.2243 13.0948 14.8883 13.238 14.7743 13.25H12.6729C12.5266 13.25 12.2221 13.1932 11.8516 12.8127C11.5685 12.5186 11.2868 12.0343 11.0141 11.561C10.6067 10.858 10.2545 10.248 9.89787 10.248C9.85283 10.2478 9.8081 10.2589 9.76552 10.2808C9.49567 10.4076 9.15302 10.9794 9.15302 12.5022C9.15302 12.9789 8.90008 13.25 8.72287 13.25H7.76037C7.43243 13.25 5.72508 13.0795 4.2111 10.7061C2.35596 7.80025 0.689778 1.97114 0.673601 1.91976C0.569924 1.54259 0.787572 1.33707 1.02287 1.33707H3.14493C3.42949 1.33707 3.52213 1.59288 3.58684 1.82246C3.66184 2.08593 3.93978 3.1398 4.39566 4.32377C5.1339 6.25004 5.58758 7.03389 5.95008 7.03389C6.01818 7.03419 6.08514 7.00779 6.14419 6.95736C6.61772 6.57036 6.52949 4.05593 6.50743 3.53774C6.50743 3.43716 6.50669 2.41499 6.26405 1.92085C6.09052 1.56664 5.79493 1.4289 5.61625 1.37861C5.66405 1.27584 5.76552 1.11842 5.89567 1.02549C6.21993 0.784983 6.80596 0.75 7.38758 0.75H7.71037C8.34126 0.763119 8.50449 0.823246 8.7339 0.909612C9.19567 1.0736 9.20449 1.51854 9.16405 3.03376C9.15229 3.46668 9.13979 3.95426 9.13979 4.52821C9.13979 4.65065 9.13611 4.7873 9.13611 4.92614C9.12214 5.70343 9.10376 6.57911 9.47287 6.93878C9.52075 6.98312 9.57603 7.0066 9.63243 7.00656C9.76038 7.00656 10.1435 7.00656 11.1824 4.35547C11.6383 3.18462 11.9913 1.80387 12.0155 1.70002C12.0361 1.64208 12.0979 1.47918 12.1729 1.41359C12.2262 1.37139 12.286 1.3503 12.3464 1.35237H14.8427C15.1148 1.35237 15.2993 1.41359 15.3354 1.56664C15.3957 1.81481 15.3236 2.57242 14.1839 4.86383C13.992 5.24536 13.8236 5.57552 13.6758 5.86413C12.6427 7.88005 12.6427 7.98172 13.7368 9.51224Z" fill="white"/>
</svg>
